<?xml version="1.0" encoding="UTF-8" standalone="no"?>
<svg viewBox="0 0 463.89285 438.87704" xmlns="http://www.w3.org/2000/svg">
<g transform="translate(-42.33929,-276.34171)">
<path d="m437.14509,499.4375zl-162.8125-144.1875-162.90625,144.25v206.125c0,5.32338 4.30162,9.59375 9.625,9.59375h101.8125v-90.375c0-5.3234 4.27037-9.625 9.59375-9.625h83.65625c5.32335,0 9.59375,4.30162 9.59375,9.625v90.375h101.84375c5.32337,0 9.59377-4.27035 9.59375-9.59375v-206.1875zm-325.71875.0625z"/>
<path d="m273.3878,276.34171-231.04851,204.58356 24.33831,27.45739 207.65538-183.88418 207.60812,183.88418 24.29105-27.45739-231.00125-204.58356-.89792,1.03969-.94518-1.03969z"/>
<path d="m111.42634,305.79074h58.57143l-.51038,34.69109-58.06105,52.45177v-87.14286z"/>
</g>
</svg>
